<svg xmlns="http://www.w3.org/2000/svg" width="240" height="160" viewBox="0 0 240 160" shape-rendering="crispEdges"><path fill="#9985a1" d="M0 0h240v160H0z"/><path fill="#c5b0b5" d="M0 0h240v91H0z"/><path fill="#e7cec0" d="M18 28h49v11H18zM170 19h51v12h-51z"/><path fill="#796d86" d="m0 124 116-38 124 38-119 36z"/><path fill="#ddc8b5" d="M66 62h87v64H66zM51 50h23v77H51zM145 41h23v86h-23z"/><path fill="#efe1cf" d="M49 45h29v14H49zM141 35h31v15h-31zM62 55h94v13H62z"/><path fill="#6a6384" d="M86 92h22v36H86zM121 78h11v18h-11zM57 75h9v18h-9zM152 60h9v18h-9z"/><path fill="#d0bdaa" d="M78 68h7v58h-7zM134 68h7v58h-7z"/><path fill="#b38280" d="M145 20h7v18h-7zM152 20h24v13h-24z"/><path fill="#af9b9c" d="m82 133 56-16 10 5-56 17z"/></svg>
